<svg width="25" height="25" viewBox="0 0 25 25" fill="none" xmlns="http://www.w3.org/2000/svg">
<path d="M21.9367 12.1856C21.9367 11.4165 21.3132 10.793 20.544 10.793H13.5807V3.82967C13.5807 3.06053 12.9572 2.43701 12.1881 2.43701C11.4189 2.43701 10.7954 3.06053 10.7954 3.82967V10.793H3.83211C3.06297 10.793 2.43945 11.4165 2.43945 12.1856C2.43945 12.9548 3.06297 13.5783 3.83211 13.5783H10.7954V20.5416C10.7954 21.3107 11.4189 21.9342 12.1881 21.9342C12.9572 21.9342 13.5807 21.3107 13.5807 20.5416V13.5783H20.544C21.3132 13.5783 21.9367 12.9548 21.9367 12.1856Z" fill="white" style="fill:white;fill-opacity:1;"/>
</svg>
