<svg width="16" height="15" viewBox="0 0 16 15" fill="none" xmlns="http://www.w3.org/2000/svg">
<path d="M12.124 9.00231C11.9267 9.19348 11.8361 9.46995 11.881 9.74108L12.5581 13.4882C12.6152 13.8058 12.4812 14.1272 12.2154 14.3108C11.9549 14.5012 11.6084 14.524 11.3243 14.3717L7.95112 12.6124C7.83383 12.5499 7.7036 12.5164 7.57031 12.5126H7.36392C7.29233 12.5233 7.22226 12.5461 7.15828 12.5812L3.78435 14.3489C3.61756 14.4326 3.42868 14.4623 3.2436 14.4326C2.79273 14.3473 2.49189 13.9178 2.56577 13.4646L3.2436 9.71747C3.28854 9.44405 3.19791 9.16606 3.00065 8.97185L0.250475 6.30619C0.0204689 6.08303 -0.0595002 5.74792 0.045602 5.44556C0.147658 5.14396 0.408129 4.92385 0.722674 4.87435L4.50788 4.32522C4.79577 4.29552 5.04862 4.12035 5.17809 3.8614L6.84602 0.441738C6.88563 0.365576 6.93665 0.295507 6.99834 0.236101L7.06689 0.182788C7.10268 0.143184 7.14381 0.110434 7.18951 0.0837779L7.27252 0.0533132L7.402 0H7.72264C8.009 0.0297031 8.26109 0.201067 8.39285 0.45697L10.0829 3.8614C10.2047 4.11045 10.4416 4.28333 10.715 4.32522L14.5002 4.87435C14.8201 4.92005 15.0874 5.14091 15.1933 5.44556C15.293 5.75097 15.207 6.08608 14.9724 6.30619L12.124 9.00231Z" fill="#F6B76F" style="fill:#F6B76F;fill:color(display-p3 0.9647 0.7176 0.4353);fill-opacity:1;"/>
</svg>
