<svg xmlns="http://www.w3.org/2000/svg" viewBox="0 0 256 256" focusable="false" color="var(--token-90ab9b9d-c64e-4230-9e06-707b75634f37, rgb(255, 255, 255))" style="user-select: none; width: 100%; height: 100%; display: inline-block; fill: var(--token-90ab9b9d-c64e-4230-9e06-707b75634f37, rgb(255, 255, 255)); color: var(--token-90ab9b9d-c64e-4230-9e06-707b75634f37, rgb(255, 255, 255)); flex-shrink: 0;"><g color="var(--token-90ab9b9d-c64e-4230-9e06-707b75634f37, rgb(255, 255, 255))" weight="regular"><path d="M248,56a8,8,0,0,1-8,8H192v40a8,8,0,0,1-8,8H136v40a8,8,0,0,1-8,8H80v40a8,8,0,0,1-8,8H16a8,8,0,0,1,0-16H64V152a8,8,0,0,1,8-8h48V104a8,8,0,0,1,8-8h48V56a8,8,0,0,1,8-8h56A8,8,0,0,1,248,56Z"></path></g></svg>